<svg width="1024" height="1024" viewBox="0 0 1024 1024" fill="none" xmlns="http://www.w3.org/2000/svg">
<path d="M459.508 341.058C459.508 371.283 441.315 397.259 415.283 408.633V473.944C415.283 490.227 402.082 503.428 385.799 503.428C369.516 503.428 356.316 490.227 356.316 473.944V408.633C330.284 397.259 312.091 371.283 312.091 341.058C312.091 300.35 345.091 267.35 385.799 267.35C426.507 267.35 459.508 300.35 459.508 341.058ZM335.27 33.9452C313.917 48.4834 280.593 67.7849 233.95 85.5445C187.666 103.167 144.258 111.798 112.403 116.002C96.5124 118.099 83.601 119.081 74.7785 119.539C70.3695 119.767 66.9907 119.865 64.7813 119.906L61.7716 119.935C53.9102 119.858 46.3424 122.924 40.7518 128.453C35.1512 133.991 32 141.54 32 149.416V311.874C32 468.295 114.63 613.082 249.306 692.64L370.885 764.467C380.138 769.933 391.632 769.933 400.883 764.461L522.378 692.652C657.004 613.082 739.599 468.321 739.599 311.934V149.416C739.599 141.514 736.426 133.942 730.795 128.4C725.164 122.86 717.545 119.812 709.65 119.937L706.701 119.922C704.502 119.891 701.141 119.808 696.76 119.595C687.979 119.17 675.125 118.228 659.31 116.16C627.598 112.016 584.393 103.398 538.34 85.5975C491.782 67.5992 458.277 48.2546 436.708 33.7087C425.92 26.4329 418.11 20.3528 413.143 16.2352C410.895 14.3718 408.659 12.4784 406.55 10.4576C400.989 4.99144 393.487 1.94876 385.686 2.00065C377.889 2.05254 370.419 5.20431 364.932 10.7383L358.524 16.4681C353.648 20.5846 345.951 26.6728 335.27 33.9452ZM90.9666 311.874V177.558C99.2608 176.9 109.072 175.919 120.117 174.461C155.273 169.822 203.343 160.294 254.932 140.652C306.161 121.146 343.557 99.6398 368.456 82.687C375.246 78.0646 381.102 73.783 386.055 69.9749C391.034 73.7488 396.921 77.9997 403.738 82.5967C428.702 99.4323 466.112 120.895 517.083 140.598C568.56 160.499 616.559 170.041 651.668 174.63C662.63 176.063 672.377 177.018 680.632 177.654V311.934C680.632 447.469 609.053 572.926 492.373 641.893L385.878 704.834L279.299 641.876C162.579 572.92 90.9666 447.439 90.9666 311.874Z" fill="white"/>
<mask id="mask0_1_13" style="mask-type:luminance" maskUnits="userSpaceOnUse" x="487" y="516" width="506" height="507">
<path d="M992.896 516.39H487.111V1022.18H992.896V516.39Z" fill="white"/>
</mask>
<g mask="url(#mask0_1_13)">
<path d="M592.481 769.283L579.75 654.701C576.105 621.903 609.861 597.829 639.684 611.955L891.404 731.191C923.545 746.415 923.545 792.151 891.404 807.375L639.684 926.609C609.861 940.738 576.105 916.662 579.75 883.864L592.481 769.283ZM592.481 769.283H740.002" stroke="white" stroke-width="44.0833" stroke-linecap="round" stroke-linejoin="round"/>
</g>
</svg>
